<?xml version="1.0" standalone="no"?>
<!DOCTYPE svg PUBLIC "-//W3C//DTD SVG 20010904//EN"
 "http://www.w3.org/TR/2001/REC-SVG-20010904/DTD/svg10.dtd">
<svg version="1.0" xmlns="http://www.w3.org/2000/svg"
 width="1200.000000pt" height="1200.000000pt" viewBox="0 0 1200.000000 1200.000000"
 preserveAspectRatio="xMidYMid meet">
<metadata>
Created by potrace 1.14, written by Peter Selinger 2001-2017
</metadata>
<g transform="translate(0.000000,1200.000000) scale(0.100000,-0.100000)"
fill="#000000" stroke="none">
<path d="M0 6000 l0 -6000 6000 0 6000 0 0 6000 0 6000 -6000 0 -6000 0 0
-6000z m2638 2320 c413 -45 710 -260 910 -660 181 -360 262 -795 262 -1399 0
-610 -79 -1043 -256 -1400 -142 -287 -338 -487 -577 -588 -162 -68 -353 -99
-547 -89 -467 25 -789 252 -1005 709 -116 248 -191 554 -227 932 -16 170 -16
694 0 860 49 500 158 862 349 1148 239 360 634 536 1091 487z m3457 -15 c389
-63 705 -277 858 -580 146 -291 121 -652 -63 -926 -56 -82 -177 -203 -259
-259 -80 -53 -213 -116 -279 -132 -28 -6 -49 -14 -47 -18 2 -4 29 -10 59 -14
84 -10 211 -53 316 -107 260 -136 427 -364 481 -659 18 -96 15 -329 -4 -431
-80 -412 -373 -745 -790 -900 -494 -184 -1157 -98 -1568 203 -80 58 -250 220
-248 236 0 4 73 66 162 138 l162 131 80 -76 c164 -156 343 -246 600 -303 86
-19 380 -16 471 5 181 41 307 107 419 221 92 93 151 197 187 331 32 117 32
372 0 499 -63 250 -210 386 -510 468 -67 18 -112 22 -347 25 -148 3 -273 8
-276 11 -4 4 7 93 25 197 l31 190 205 6 c169 5 218 10 280 28 274 80 454 267
500 520 15 80 12 221 -6 309 -37 184 -146 324 -320 414 -151 78 -218 93 -429
93 -156 0 -192 -3 -270 -23 -162 -42 -347 -146 -506 -283 -31 -27 -61 -49 -65
-48 -9 0 -256 274 -262 289 -6 17 143 141 260 216 201 130 445 213 709 243
106 12 327 5 444 -14z m3835 -1850 l0 -1805 420 0 420 0 0 -200 0 -200 -1160
0 -1160 0 0 200 0 200 490 0 490 0 0 1535 c0 844 -2 1535 -4 1535 -2 0 -208
-124 -457 -275 -248 -151 -453 -274 -455 -273 -1 2 -50 81 -108 176 l-105 173
47 30 c26 16 292 181 592 368 l545 339 223 1 222 1 0 -1805z"/>
<path d="M2363 7916 c-167 -39 -303 -145 -416 -328 -109 -176 -180 -428 -217
-778 -29 -271 -29 -854 0 -1150 16 -164 66 -448 76 -437 3 2 279 554 614 1227
l610 1222 -32 40 c-67 85 -189 162 -305 194 -82 22 -253 27 -330 10z"/>
<path d="M2640 6188 c-299 -607 -572 -1160 -607 -1231 l-63 -127 68 -69 c237
-236 643 -240 880 -8 209 205 320 538 362 1086 13 174 13 685 0 866 -18 243
-66 553 -89 578 -4 4 -252 -489 -551 -1095z"/>
</g>
</svg>
