<?xml version="1.0" encoding="UTF-8"?>
<svg preserveAspectRatio="xMidYMid" version="1.1" viewBox="0 0 256 214" xmlns="http://www.w3.org/2000/svg">
<title>eleventy</title>
<path d="m98.329 4.6413c2.1429 0 3.8457 1.2127 4.7635 3.1827 0.64325 1.3807 0.92481 3.1345 0.93816 5.3371l5e-4 0.16604v157.55c-0.012832 2.9201-0.31825 5.2015-0.98659 6.9206-0.9273 2.3852-2.6966 3.925-5.1112 3.9649h-0.0944l-18.186-0.022099c-2.4582 0-4.2273-1.5742-5.1357-4.0016-0.63852-1.7063-0.92994-3.9737-0.94181-6.8845l-3.784e-4 -131.71-4.8965 1.2404-1.9541 0.4899-0.57093 0.13908-0.28942 0.06691-0.13656 0.028283-0.049662 0.008404-0.025846 0.003127-0.021505 4.86e-4 -0.0059864-0.0011421-0.0032754-0.0019509-9.139e-4 -0.0026737 0.0010978-0.0033106 0.0027598-0.0038616 0.031846-0.029888c0.011294-0.011945 0.016735-0.023515-0.0020746-0.0306l-0.011511-0.0031498-0.056337 0.002735c-2.0633 0.077342-3.7802-1.0265-4.7194-2.9167-0.67108-1.3507-0.95859-3.0763-0.9719-5.2606l-4.862e-4 -0.16065v-11.426c0-2.0459 0.32999-3.7639 1.0759-5.1646 0.851-1.5981 2.2133-2.6952 3.9273-3.1403l0.10326-0.025922 0.11857-0.027474 31.446-8.0936c0.44742-0.11122 0.94127-0.17108 1.478-0.18714l0.14743-0.0032998h0.13796zm52.513-4.6413c2.2537 0 4.048 1.2627 5.0341 3.3443 0.71262 1.5044 1.0293 3.4415 1.0433 5.8779l4.89e-4 0.1708v46.302l4.42e-4 0.11051h13.526c2.1248 0 3.8707 1.0954 4.8971 2.9639l0.04833 0.089555 0.047235 0.090716c0.74281 1.4526 1.0702 3.3074 1.0847 5.6225l5.05e-4 0.16227v6.4315c0 2.3557-0.3286 4.2397-1.0986 5.7111-1.0033 1.9175-2.7503 3.05-4.8792 3.0844l-0.10008 8.067e-4 -13.548-2.211e-4v60.713l0.001103 0.48275 0.003306 0.47628 0.005507 0.46981 0.007707 0.46333 0.004678 0.22923 0.014094 0.56598 0.017522 0.55582 0.020944 0.54566 0.024363 0.53548 0.010701 0.21134 0.02304 0.41778 0.025222 0.41124 0.027401 0.4047 0.029579 0.39816 0.015605 0.19662 0.032841 0.38833 0.017234 0.1917 0.017778 0.19006 0.037182 0.37519c0.012756 0.12397 0.025872 0.24684 0.03935 0.36862l0.020487 0.18184 0.042596 0.35874c0.091725 0.74643 0.19775 1.4492 0.31799 2.1082l0.040605 0.21802 0.029648 0.15373 0.057757 0.288c0.019499 0.09487 0.039242 0.18861 0.059224 0.28121l0.030152 0.13806 0.06136 0.27101 0.06274 0.26419 0.031877 0.12954 0.064746 0.25394c0.084329 0.32305 0.17188 0.62902 0.26233 0.91783l0.078225 0.24334c0.38143 1.1558 0.81084 2.0164 1.2644 2.5746 0.84212 1.0365 1.5829 1.6625 2.1536 1.9116l0.17221 0.071335c0.67411 0.26853 1.6077 0.42124 2.8075 0.4318l0.13441 5.88e-4h8.4427c2.0187 0 3.7651 0.80325 4.9107 2.3821 0.9515 1.3114 1.3691 2.9763 1.3875 4.9706l6.44e-4 0.13967v7.1387c0 2.207-0.42845 4.0269-1.4273 5.4436-1.1599 1.6451-2.9361 2.5051-5.0001 2.5343l-0.1089 7.67e-4 -12.117 0.022107c-3.3582 0-6.2886-0.23538-8.8396-0.71669-2.7275-0.51462-5.5014-1.6468-8.3507-3.3812-2.9665-1.8057-5.3986-4.283-7.2914-7.4036-1.8391-3.032-3.2767-7.1232-4.3608-12.285-1.0554-5.0247-1.5944-10.879-1.6127-17.546l-4.81e-4 -0.35162v-60.337l-5.5916 2.211e-4c-2.1074 0-3.85-1.0688-4.8831-2.9077l-0.048655-0.088148-0.047574-0.089306c-0.75205-1.4372-1.083-3.2681-1.0986-5.5476v-0.16359-6.4315c0-2.391 0.32513-4.2984 1.0852-5.7848 0.99593-1.9476 2.7455-3.1081 4.8918-3.1433l0.10089-8.267e-4h5.591l6.63e-4 -0.1821 2.1471-46.374 0.012274-0.20779c0.15142-2.3967 0.54024-4.2839 1.2498-5.7336 0.98401-2.0103 2.6713-3.27 4.8233-3.3086h0.099652 11.913zm100.03 55.762c1.9995 0 3.5527 1.1834 4.3551 3.0101 0.54433 1.2391 0.77238 2.7902 0.77238 4.7254 0 0.070986 0 0.14326-0.001948 0.21685l-0.002429 0.11139-0.007752 0.22881-0.005316 0.11748-0.013493 0.24123-0.00817 0.1238-0.01917 0.2541c-0.016839 0.20678-0.037277 0.42205-0.061249 0.64625l-0.018641 0.16984-0.033996 0.29063-0.037632 0.30027-0.04124 0.31011-0.032833 0.23645-21.207 110.41-0.049202 0.27146-0.10596 0.57524-0.10647 0.56978-0.16068 0.84444-0.10776 0.55614-0.16261 0.82397-0.10906 0.54249-0.10957 0.53703-0.11009 0.53156-0.11061 0.5261-0.11113 0.52064-0.16767 0.77072-0.11244 0.50699-0.11296 0.50153-0.11348 0.49606-0.114 0.4906-0.11453 0.48514-0.11506 0.47967-0.11558 0.47421-0.11611 0.46874-0.11663 0.46328-0.11716 0.45782-0.11769 0.45235-0.11822 0.44688-0.11875 0.44142-0.11928 0.43595-0.11981 0.43048-0.12034 0.42502-0.12087 0.41955-0.12141 0.41408-0.12194 0.40862-0.12248 0.40315-0.12301 0.39768-0.12355 0.39221-0.12408 0.38674-0.12462 0.38127-0.12516 0.3758-0.062781 0.18585-0.12596 0.3676-0.063185 0.18175-0.063319 0.18038-0.15889 0.44496-0.15974 0.43641-0.06413 0.17217-0.12867 0.34024-0.12921 0.33476c-0.057547 0.14757-0.11526 0.29352-0.17312 0.43784l-0.15159 0.37345-0.15777 0.37982c-0.27705 0.65986-0.55917 1.2944-0.84671 1.9038l-0.12356 0.25959-0.16579 0.34131-0.167 0.33582c-1.8437 3.6638-3.9086 6.33-6.2816 8.0038-2.9566 2.1042-6.7301 3.1801-11.291 3.3087l-0.20474 0.005128h-1.2607c-7.1501 0-12.373-1.9621-15.382-6.1094l-0.090509-0.12634-0.078042-0.11158-0.039399-0.049281c-0.85761-1.0882-1.2811-2.5865-1.4485-4.6811l-0.010783-0.14053-0.018236-0.26866-0.008155-0.13671-0.007526-0.13831-0.013201-0.28145-0.005696-0.14316-0.005105-0.1448-0.010243-0.36924-0.006764-0.37971-0.001766-0.15485-0.001973-0.31484 9.6e-5 -0.3461 9.71e-4 -0.19141 0.003895-0.37752 0.00293-0.18611 0.003589-0.18436 0.009163-0.36345 0.005581-0.17911 0.00625-0.17736 0.014519-0.34952 0.017229-0.3426 0.019961-0.33572c0.007112-0.11076 0.014682-0.22038 0.022715-0.32886l0.012398-0.16187 0.026886-0.31865 0.029695-0.31188c0.13998-1.3883 0.36591-2.5718 0.68671-3.5641 0.8329-2.5762 2.491-4.3059 4.9927-4.3462l0.089707-7.21e-4 0.098207 0.001532 0.080557 0.003673 0.083614 0.006157 0.087858 0.008929 0.1176 0.015493 0.12841 0.020828 0.17162 0.03282 0.16035 0.034529 0.14129 0.032723 0.27891 0.069091 0.37512 0.099089 0.50524 0.13987 0.5336 0.1521 0.70766 0.20532 1.6933 0.49782 0.4813 0.14587 0.43038 0.12768 0.40965 0.11874 0.38822 0.10978 0.36609 0.10079 0.25962 0.069678 0.24648 0.064593 0.30769 0.078192 0.28309 0.069101 0.19576 0.045843 0.18123 0.0407 0.16641 0.035546 0.19831 0.039356 0.13067 0.023472 0.11486 0.018278 0.067642 0.009292 0.060395 0.006975 0.053061 0.004654 0.023752 0.001455 0.041893 0.001165c0.025211 0 0.043521-0.003862 0.08026-0.019889 0.08783-0.038314 0.20593-0.11835 0.3537-0.25685 0.46204-0.43306 0.98001-1.221 1.4981-2.3676 0.65839-1.4571 1.1412-3.3394 1.4327-5.6383l0.024512-0.19807 0.039833-0.34429 0.03706-0.35028 0.017487-0.17738 0.01679-0.17888 0.031482-0.36224c0.098263-1.1931 0.15161-2.4816 0.15828-3.8648l7.16e-4 -0.29784-0.002143-0.09517-0.003806-0.073722-0.009268-0.12592-0.018986-0.19638-0.026539-0.22872-0.034067-0.26082-0.01985-0.14237-0.045315-0.30853-0.052784-0.34005-0.076447-0.46902-0.088031-0.51744-0.09957-0.5654-0.11106-0.6129-0.14838-0.79754-0.16478-0.8645-0.21286-1.0921-0.2703-1.3568-0.26002-1.2809-0.32386-1.5692-0.34287-1.6359-23.364-97.108-0.040538-0.29088-0.037236-0.27668-0.034313-0.26686-0.03138-0.25734-0.035086-0.30876-0.030469-0.29494-0.010891-0.11424-0.019551-0.22228-0.016571-0.21426-0.007164-0.10422-0.01208-0.2028-0.009074-0.19554-0.003407-0.095138-0.004548-0.1852-0.001519-0.090139v-0.25107c0.012433-1.7232 0.21552-3.1133 0.68589-4.2413 0.73282-1.7574 2.1873-2.9406 4.1068-2.9771l0.091755-8.713e-4h14.41c1.9289 0 3.6397 0.70506 4.9609 2.0663 1.2152 1.2521 1.9407 3.1418 2.4131 5.7763l0.026469 0.14992 0.044143 0.26185 12.677 67.097 9.8996-66.629 0.016904-0.12726c0.35913-2.6684 0.96803-4.6517 1.978-6.0201l0.061079-0.081367 0.060845-0.078372c1.2226-1.5486 2.9361-2.4057 4.8858-2.4367h0.10658 9.9898zm-212.42-50.922c2.1429 0 3.8457 1.2127 4.7635 3.1827 0.64325 1.3807 0.92481 3.1345 0.93816 5.3371l5e-4 0.16604v157.36c0 3.01-0.30403 5.3522-0.98659 7.1079-0.9273 2.3852-2.6966 3.925-5.1075 3.9649h-0.094257-18.212c-2.4582 0-4.2273-1.5742-5.1357-4.0016-0.63852-1.7063-0.92994-3.9737-0.94181-6.8845l-3.784e-4 -131.71-3.5123 0.88826-2.7718 0.69269-0.65651 0.15844-0.28936 0.066523-0.21995 0.045781-0.12574 0.020087-0.10302 0.01094-0.12179 0.0099873c-2.147 0.15381-3.9403-0.95889-4.9079-2.9065-0.67108-1.3507-0.95859-3.0763-0.9719-5.2606l-4.8618e-4 -0.16065v-11.426c0-2.0459 0.32999-3.7639 1.0759-5.1646 0.851-1.5981 2.2133-2.6952 3.9273-3.1403l0.10326-0.025922 0.11901-0.027695 31.468-8.1155c0.44742-0.11122 0.94127-0.17108 1.478-0.18714l0.14743-0.0032998h0.13796z"/>
</svg>
