<?xml version="1.0" encoding="UTF-8" standalone="no"?>
<svg
   version="1.1"
   id="svg3626"
   viewBox="0 0 372.16916 241.97892"
   height="241.97891"
   width="372.16916"
   sodipodi:docname="twitter-link.svg"
   xml:space="preserve"
   inkscape:version="1.2.1 (9c6d41e410, 2022-07-14, custom)"
   xmlns:inkscape="http://www.inkscape.org/namespaces/inkscape"
   xmlns:sodipodi="http://sodipodi.sourceforge.net/DTD/sodipodi-0.dtd"
   xmlns="http://www.w3.org/2000/svg"
   xmlns:svg="http://www.w3.org/2000/svg"
   xmlns:rdf="http://www.w3.org/1999/02/22-rdf-syntax-ns#"
   xmlns:cc="http://creativecommons.org/ns#"
   xmlns:dc="http://purl.org/dc/elements/1.1/"><sodipodi:namedview
     id="namedview7"
     pagecolor="#ffffff"
     bordercolor="#000000"
     borderopacity="0.25"
     inkscape:showpageshadow="2"
     inkscape:pageopacity="0.0"
     inkscape:pagecheckerboard="0"
     inkscape:deskcolor="#d1d1d1"
     showgrid="false"
     inkscape:zoom="3.5669381"
     inkscape:cx="180.96754"
     inkscape:cy="130.50409"
     inkscape:window-width="1920"
     inkscape:window-height="1050"
     inkscape:window-x="1920"
     inkscape:window-y="18"
     inkscape:window-maximized="1"
     inkscape:current-layer="svg3626" /><defs
     id="defs3628" /><metadata
     id="metadata3631"><rdf:RDF><cc:Work
         rdf:about=""><dc:format>image/svg+xml</dc:format><dc:type
           rdf:resource="http://purl.org/dc/dcmitype/StillImage" /></cc:Work></rdf:RDF></metadata><path
     d="m 138.36582,188.08399 -36.39879,36.3887 c -23.351691,23.34162 -61.131821,23.34162 -84.473428,0 C 6.200901,213.20017 0,198.197 0,182.24606 0,166.29513 6.200901,151.29197 17.483519,140.00935 l 49.06275,-49.052657 c 23.74492,-23.744923 61.646031,-22.807218 84.463331,0 4.5675,4.567498 8.16704,9.810527 10.98013,15.396387 l -16.06185,16.05176 c -1.81489,-6.18074 -5.04137,-11.98842 -9.71978,-16.65674 -14.59983,-14.59984 -39.625271,-15.224973 -54.840161,-0.01 l -0.01,0.0202 -49.072828,49.05266 c -15.12415,15.11407 -15.12415,39.73619 0,54.85026 15.295559,15.29556 39.907598,15.00316 54.870418,0 l 24.450701,-24.44063 c 10.01221,2.86351 18.05825,3.37772 26.75968,2.86351 z m 1.62332,-170.58026 -36.03581,36.055977 c 8.54011,-0.504139 16.68698,0 26.74958,2.853424 l 24.12807,-24.087732 c 15.10399,-15.144318 39.72611,-15.124152 54.85026,-0.01012 15.29554,15.30564 14.98299,39.91767 0,54.870417 l -48.70986,48.709854 -0.0302,0.0202 c -14.49901,14.48893 -39.18163,15.64845 -54.84017,-0.0202 -4.76915,-4.77924 -7.914971,-10.50625 -9.639131,-16.566 l -0.84695,0.68563 -15.29555,15.2754 c 2.82317,5.60602 6.40256,10.83897 10.97004,15.40647 22.635811,22.63581 60.536931,23.93649 84.473421,0 l 48.71994,-48.70985 c 23.33153,-23.351693 23.35168,-61.121735 -0.01,-84.463342 -23.36178,-23.402103 -61.17215,-23.321442 -84.48351,-0.02017 z"
     id="path1410"
     style="fill:#FB1C1C;fill-opacity:1;stroke-width:10.0828" /><path
     id="path3611"
     style="fill:#ffffff;fill-opacity:1;fill-rule:nonzero;stroke:none;stroke-width:0.686915"
     d="m 231.29058,242.05203 c 77.25071,0 119.49316,-63.99824 119.49316,-119.49311 0,-1.81776 -0.0371,-3.62734 -0.11855,-5.42871 8.20041,-5.92819 15.32814,-13.32614 20.94928,-21.747617 -7.52487,3.344834 -15.62291,5.596577 -24.11807,6.611897 8.67121,-5.199466 15.32815,-13.424389 18.46829,-23.229667 -8.11442,4.810515 -17.10087,8.306832 -26.66868,10.194187 -7.66406,-8.163534 -18.57469,-13.268798 -30.65625,-13.268798 -23.19282,0 -42.0009,18.808076 -42.0009,41.992688 0,3.29571 0.36845,6.50136 1.08904,9.57597 -34.90591,-1.75633 -65.85696,-18.46827 -86.56875,-43.880045 -3.60687,6.20658 -5.68664,13.416199 -5.68664,21.108935 0,14.57074 7.41431,27.43426 18.68934,34.95911 -6.89027,-0.21289 -13.36298,-2.10433 -19.02098,-5.25266 -0.007,0.17621 -0.007,0.34801 -0.007,0.53632 0,20.33925 14.47662,37.32139 33.69408,41.16979 -3.52908,0.9621 -7.24235,1.47795 -11.0744,1.47795 -2.70207,0 -5.33456,-0.26594 -7.89331,-0.75739 5.34681,16.68735 20.85098,28.83032 39.23329,29.17013 -14.37424,11.26683 -32.48222,17.97699 -52.16233,17.97699 -3.38578,0 -6.73062,-0.19258 -10.01814,-0.58137 18.587,11.9137 40.65804,18.8654 64.37898,18.8654" /></svg>
